# AST/ASF file generated using VICON BodyLanguage
# -----------------------------------------------
:version 1.10
:name VICON
:units
  mass 1.0
  length 0.45
  angle deg
:documentation
   .ast/.asf automatically generated from VICON data using
   VICON BodyBuilder and BodyLanguage model FoxedUp or BRILLIANT.MOD
:root
   order TX TY TZ RX RY RZ
   axis XYZ
   position 0 0 0  
   orientation 0 0 0 
:bonedata
  begin
     id 1 
     name lhipjoint
     direction 0.522423 -0.726805 0.445902 
     length 2.25074 
     axis 0 0 0  XYZ
  end
  begin
     id 2 
     name lfemur
     direction 0.34202 -0.939693 0  
     length 6.54609  
     axis 0 0 20  XYZ
    dof rx ry rz
    limits (-160.0 20.0)
           (-70.0 70.0)
           (-60.0 70.0)
  end
  begin
     id 3 
     name ltibia
     direction 0.34202 -0.939693 0   
     length 7.7528   
     axis 0 0 20   XYZ
    dof rx
    limits (-10.0 170.0)
  end
  begin
     id 4 
     name lfoot
     direction 0.143696 -0.394801 0.90746   
     length 1.73269   
     axis -90 7.62852e-016 20   XYZ
    dof rx rz
    limits (-45.0 90.0)
           (-70.0 20.0)
  end
  begin
     id 5 
     name ltoes
     direction 1.53633e-011 -4.21912e-011 1   
     length 0.858383   
     axis -90 7.62852e-016 20   XYZ
    dof rx
    limits (-90.0 20.0)
  end
  begin
     id 6 
     name rhipjoint
     direction -0.515943 -0.73016 0.447961   
     length 2.2404  
     axis 0 0 0  XYZ 
  end
  begin
     id 7 
     name rfemur
     direction -0.34202 -0.939693 0   
     length 6.84377   
     axis 0 0 -20   XYZ
    dof rx ry rz
    limits (-160.0 20.0)
           (-70.0 70.0)
           (-70.0 60.0)
  end
  begin
     id 8 
     name rtibia
     direction -0.34202 -0.939693 0   
     length 7.57596   
     axis 0 0 -20   XYZ
    dof rx
    limits (-10.0 170.0)
 end
 begin
     id 9 
     name rfoot
     direction -0.0999372 -0.274575 0.956358   
     length 1.78783  
     axis -90 -7.62852e-016 -20   XYZ
    dof rx rz
    limits (-45.0 90.0)
           (-20.0 70.0)
  end
  begin
     id 10 
     name rtoes
     direction -1.53535e-011 -4.21895e-011 1   
     length 0.898614   
     axis -90 -7.62852e-016 -20   XYZ
    dof rx
    limits (-90.0 20.0)
  end
  begin
     id 11 
     name lowerback
     direction -0.011775 0.996164 -0.0867116   
     length 1.91499   
     axis 0 0 0   XYZ
    dof rx ry rz
    limits (-20.0 45.0)
           (-30.0 30.0)
           (-30.0 30.0)
  end
  begin
     id 12 
     name upperback
     direction -0.00189771 0.999673 -0.0254833   
     length 1.92213   
     axis 0 0 0   XYZ
    dof rx ry rz
    limits (-20.0 45.0)
           (-30.0 30.0)
           (-30.0 30.0)
  end
  begin
     id 13 
     name thorax
     direction 0.00335995 0.999878 0.0152401   
     length 1.93138   
     axis 0 0 0   XYZ
    dof rx ry rz
    limits (-20.0 45.0)
           (-30.0 30.0)
           (-30.0 30.0)
  end
  begin
     id 14 
     name lowerneck
     direction 0.00233191 0.998509 0.0545404   
     length 1.59408   
     axis 0 0 0   XYZ
    dof rx ry rz
    limits (-20.0 45.0)
           (-30.0 30.0)
           (-30.0 30.0)
  end
  begin
     id 15 
     name upperneck
     direction 0.07881 0.9956 -0.0506934   
     length 1.59344   
     axis 0 0 0   XYZ
    dof rx ry rz
    limits (-20.0 45.0)
           (-30.0 30.0)
           (-30.0 30.0)
  end
  begin
     id 16
     name head
     direction 0.0261681 0.999378 -0.0236299  
     length 1.60935  
     axis 0 0 0   XYZ
    dof rx ry rz
    limits (-20.0 45.0)
           (-30.0 30.0)
           (-30.0 30.0)
  end
  begin
     id 17 
     name lclavicle
     direction 0.96643 0.252035 0.0499195  
     length 3.82153  
     axis 0 0 0   XYZ
    dof ry rz
    limits (-20.0 10.0)
           (0.0 20.0)
  end
  begin
     id 18 
     name lhumerus
     direction 1 -4.48967e-011 -2.01614e-018   
     length 4.87796   
     axis 180 -30 -90   XYZ
    dof rx ry rz
    limits (-60.0 90.0)
           (-90.0 90.0)
           (-90.0 90.0)
  end
  begin
     id 19
     name lradius
     direction 1 -4.48958e-011 3.1409e-027   
     length 3.23169   
     axis 180 -30 -90   XYZ
    dof rx
    limits (-10.0 170.0)
  end
  begin
     id 20
     name lwrist
     direction 1 -4.48924e-011 1.0365e-027   
     length 1.61584   
     axis -2.56395e-016 90 90   XYZ
    dof ry
    limits (-180.0 0.0)
 end
  begin
     id 21 
     name lhand
     direction 1 -4.49055e-011 2.09488e-027   
     length 0.731324   
     axis -1.32723e-015 90 90   XYZ
    dof rx rz
    limits (-90.0 90.0)
           (-45.0 45.0)
  end
  begin
     id 22 
     name lfingers
     direction 1 -4.48935e-011 4.14981e-027   
     length 0.589612   
     axis -2.6545e-015 90 90   XYZ
    dof rx
    limits (0.0 90.0)
  end
  begin
     id 23
     name lthumb
     direction 0.707107 -6.35097e-011 0.707107   
     length 0.846569   
     axis -90 45 5.05613e-014   XYZ
    dof rx rz
    limits (-45.0 45.0)
           (-45.0 45.0)
  end
  begin
     id 24 
     name rclavicle
     direction -0.979337 0.201016 0.0221522   
     length 3.73827  
     axis 0 0 0   XYZ 
    dof ry rz
    limits (-10.0 20.0)
           (-20.0 0.0)
  end
  begin
     id 25 
     name rhumerus
     direction -1 -4.48971e-011 1.65907e-027  
     length 4.9143   
     axis 180 30 90   XYZ
    dof rx ry rz
    limits (-90.0 60.0)
           (-90.0 90.0)
           (-90.0 90.0)
  end
  begin
     id 26 
     name rradius
     direction -1 -4.4894e-011 2.17871e-028   
     length 3.29093   
     axis 180 30 90   XYZ
    dof rx
    limits (-10.0 170.0)
  end
  begin
     id 27 
     name rwrist
     direction -1 -4.48971e-011 1.04038e-027   
     length 1.64546   
     axis -2.56395e-016 -90 -90   XYZ
    dof ry
    limits (-180.0 0.0)
  end
  begin
     id 28
     name rhand
     direction -1 -4.49017e-011 2.08843e-027   
     length 0.54512   
     axis -1.32723e-015 -90 -90   XYZ
    dof rx rz
    limits (-90.0 90.0)
           (-45.0 45.0)
  end
  begin
     id 29
     name rfingers
     direction -1 -4.48918e-011 4.1439e-027   
     length 0.43949   
     axis -2.6545e-015 -90 -90   XYZ
    dof rx
    limits (0.0 90.0)
  end
  begin
     id 30
     name rthumb
     direction -0.707107 -6.35065e-011 0.707107   
     length 0.631022   
     axis -90 -45 -5.05613e-014   XYZ
    dof rx rz
    limits (-45.0 45.0)
           (-45.0 45.0)
  end
:hierarchy
  begin
    root lhipjoint rhipjoint lowerback
    lhipjoint lfemur
    lfemur ltibia
    ltibia lfoot
    lfoot ltoes
    rhipjoint rfemur
    rfemur rtibia
    rtibia rfoot
    rfoot rtoes
    lowerback upperback
    upperback thorax
    thorax lowerneck lclavicle rclavicle
    lowerneck upperneck
    upperneck head
    lclavicle lhumerus
    lhumerus lradius
    lradius lwrist
    lwrist lhand lthumb
    lhand lfingers
    rclavicle rhumerus
    rhumerus rradius
    rradius rwrist
    rwrist rhand rthumb
    rhand rfingers
  end

#!OML:ASF H:\BreakDance\Project 1\Capture day 1\Session 1\Male.ASF
:FULLY-SPECIFIED
:DEGREES
3375
root -15.5779 8.85378 -3.60503 616.401 -24.8103 -577.74
lowerback 18.3729 -1.56892 -13.9045
upperback 6.67434 -7.27888 -13.8042
thorax -3.31864 -4.35582 -5.68777
lowerneck -7.45171 10.1948 2.9441
upperneck -4.48725 13.3788 -11.1618
head 0.89468 6.58259 -3.60573
rclavicle -5.80451e-014 -8.42847e-014
rhumerus 13.5962 -6.62718 -93.887
rradius 29.9237
rwrist -39.6927
rhand -14.526 -401.932
rfingers 7.12502
rthumb 11.6219 1008.41
lclavicle -5.80451e-014 -8.42847e-014
lhumerus 47.6539 -52.4044 31.3049
lradius 42.6652
lwrist 33.0078
lhand -35.0373 -13.1113
lfingers 7.12502
lthumb -8.18075 16.7103
rfemur -67.0329 5.65116 59.1702
rtibia 56.7919
rfoot -8.8492 12.6558
rtoes 59.8825
lfemur 494.853 164.811 172.456
ltibia 77.3527
lfoot 3.45219 -25.2954
ltoes -24.0689
3376
root -15.6482 8.82334 -3.56579 614.85 -23.3182 -574.318
lowerback 18.0289 -0.856071 -14.143
upperback 6.44244 -6.55327 -14.6006
thorax -3.47567 -4.04712 -6.63661
lowerneck -7.34858 10.6164 2.00048
upperneck -5.18347 13.9596 -11.501
head 0.645986 6.91064 -3.55083
rclavicle 2.3059e-014 -2.94201e-014
rhumerus 13.6072 -5.14817 -94.4716
rradius 30.3389
rwrist -40.7378
rhand -14.7233 -401.924
rfingers 7.12502
rthumb 11.4316 1008.41
lclavicle 2.3059e-014 -2.94201e-014
lhumerus 46.1083 -51.4853 31.0258
lradius 44.4663
lwrist 34.6759
lhand -35.0906 -14.9995
lfingers 7.12502
lthumb -8.23222 14.8202
rfemur -65.3714 4.23502 62.0688
rtibia 57.7492
rfoot -7.51963 14.9272
rtoes 61.0586
lfemur 498.194 167.44 173.235
ltibia 73.7174
lfoot 2.44342 -25.2954
ltoes -24.2506
3377
root -15.7272 8.78098 -3.5272 613.432 -21.9333 -571.099
lowerback 17.5455 -0.265963 -14.1894
upperback 6.21938 -5.89138 -15.2771
thorax -3.53508 -3.76875 -7.55797
lowerneck -7.2367 11.1078 1.0695
upperneck -5.87948 14.6258 -12.1447
head 0.427866 7.2879 -3.6019
rclavicle -6.91771e-014 -1.69365e-013
rhumerus 13.6291 -3.56422 -94.971
rradius 30.8515
rwrist -41.6979
rhand -14.8537 -401.759
rfingers 7.12502
rthumb 11.3058 1008.57
lclavicle -6.91771e-014 -1.69365e-013
lhumerus 43.612 -50.2147 31.769
lradius 46.3619
lwrist 35.8806
lhand -34.5865 -16.506
lfingers 7.12502
lthumb -7.74571 13.3321
rfemur -63.8695 2.8326 64.6162
rtibia 58.9848
rfoot -6.10419 16.7897
rtoes 62.0322
lfemur 501.326 169.954 173.697
ltibia 70.1688
lfoot 1.17282 -25.1584
ltoes -24.3086
3378
root -15.8146 8.72544 -3.4851 612.211 -20.7004 -568.218
lowerback 16.9259 0.163765 -14.0522
upperback 6.04249 -5.3333 -15.8212
thorax -3.45511 -3.53988 -8.41539
lowerneck -7.14589 11.6729 0.197804
upperneck -6.53736 15.3805 -13.088
head 0.263269 7.714 -3.76054
rclavicle 1.51474e-013 1.06946e-013
rhumerus 13.725 -1.89669 -95.3655
rradius 31.419
rwrist -42.5314
rhand -14.9265 -401.544
rfingers 7.12502
rthumb 11.2357 1008.78
lclavicle 1.51474e-013 1.06946e-013
lhumerus 40.7553 -48.707 32.9793
lradius 48.133
lwrist 36.2865
lhand -33.931 -17.3612
lfingers 7.12502
lthumb -7.11294 12.4993
rfemur -62.688 1.5533 66.7356
rtibia 60.5544
rfoot -4.84726 18.1168
rtoes 62.6755
lfemur 504.167 172.51 173.847
ltibia 66.6763
lfoot -0.0953723 -25.0368
ltoes -23.6576
3379
root -15.9083 8.6577 -3.43909 611.218 -19.659 -565.776
lowerback 16.1938 0.420512 -13.7682
upperback 5.93063 -4.90249 -16.2215
thorax -3.22677 -3.36927 -9.16215
lowerneck -7.00946 12.3003 -0.565692
upperneck -7.18698 16.1988 -14.324
head 0.137225 8.17962 -4.03889
rclavicle 3.4191e-014 -8.24956e-015
rhumerus 13.9163 -0.174582 -95.6171
rradius 31.9976
rwrist -43.2339
rhand -14.993 -401.371
rfingers 7.12502
rthumb 11.1715 1008.95
lclavicle 3.4191e-014 -8.24956e-015
lhumerus 37.9838 -47.095 34.3441
lradius 49.5248
lwrist 35.862
lhand -33.4229 -17.8163
lfingers 7.12502
lthumb -6.62252 12.0602
rfemur -61.927 0.394408 68.4555
rtibia 62.4631
rfoot -3.90104 18.8995
rtoes 63.0145
lfemur 506.675 175.185 173.723
ltibia 63.188
lfoot -1.36974 -25.0054
ltoes -22.5399
